<svg xmlns="http://www.w3.org/2000/svg" overflow="visible" viewBox="0 0 425.7 538">
  <style>
    .st2{fill:#fff}.st4{fill:#0791c8}.st5{fill:#17181b}
  </style>
  <path d="M394 180.6c-8.8-8.7-19-15.6-30.2-20.7A130.8 130.8 0 01298.2 93 155.7 155.7 0 1028.4 245.3c24 34 30.2 77.5 17.8 117.3-17.6 56.6-11.4 110.3 22 143.8 58.8 58.7 179.3 33.4 269.3-56.5 90-90 115.3-210.5 56.5-269.3z" fill="#f2f2f2"/>
  <path d="M279.7 484.7v-78.6c0-6.6 3.4-12.7 9-16.4 40.7-26.6 77.2-68.7 81-118.7 10.8-138-123.3-212.7-232.3-137.7 0 0-80.4 56.1-82 178.7-.1 2.7 2.1 5 4.8 5h31s-6.9 91.6 9 100c7.2 3.7 26 5.5 45.1 4v63.7c0 2.9 2.4 5.3 5.3 5.3h123.9c2.9 0 5.2-2.4 5.2-5.3z" opacity=".1" fill="#0791c8"/>
  <path class="st2" d="M279.7 461.6v-83.8c0-6.7 3.4-12.8 9-16.4 40.7-26.7 77.2-68.8 81-118.8C380.6 104.6 246.4 30 137.4 105c0 0-80.4 56.1-82 178.7-.1 2.8 2.1 5 4.8 5h31s-6.9 91.6 9 100c7.2 3.7 26 5.5 45.1 4.1v68.9h134.4z"/>
  <path class="st2" d="M369.4 207.8H67.5c13.9-42.3 36.5-71 52.2-87.2h211.8a152 152 0 0137.9 87.3z"/>
  <path d="M369.4 207.8H67.5c13.9-42.3 36.5-71 52.2-87.2h211.8a152 152 0 0137.9 87.3z" fill="none" stroke="#0791c8" stroke-width="4" stroke-linecap="round" stroke-linejoin="round" stroke-miterlimit="10"/>
  <path class="st4" d="M224 213.1H179a5.2 5.2 0 110-10.5H224a5.2 5.2 0 110 10.5z"/>
  <path class="st4" d="M176.8 254.7H116a5.2 5.2 0 110-10.5h55.5v-66.9h-30.3a5.2 5.2 0 110-10.5h35.6c2.9 0 5.2 2.4 5.2 5.3v77.3c0 3-2.3 5.3-5.2 5.3z"/>
  <circle class="st5" cx="137.9" cy="172.1" r="13.3"/>
  <circle transform="rotate(-78.1 111.3 249.4)" class="st5" cx="111.3" cy="249.4" r="13.3"/>
  <path class="st2" d="M117.8 249.4a6.5 6.5 0 11-13 0 6.5 6.5 0 0113 0z"/>
  <path class="st4" d="M197.3 320.1H93a5.2 5.2 0 110-10.5h104.4a5.2 5.2 0 110 10.5z"/>
  <circle transform="rotate(-41.3 208.4 315)" class="st5" cx="208.3" cy="314.9" r="13.3"/>
  <path class="st2" d="M214.8 314.8a6.5 6.5 0 11-13 0 6.5 6.5 0 0113 0zM144.4 172a6.5 6.5 0 11-13 0 6.5 6.5 0 0113 0z"/>
  <path class="st4" d="M269.4 158a5.2 5.2 0 01-5.2-5.3v-69a5.2 5.2 0 1110.5 0v69c0 3-2.3 5.3-5.3 5.3zM229.3 415.5a5.2 5.2 0 01-5.2-5.2v-54.7c0-2.9 2.3-5.2 5.2-5.2h34.9V256a5.2 5.2 0 1110.5 0v99.5c0 3-2.4 5.3-5.3 5.3h-34.8v49.4c0 2.8-2.4 5.2-5.3 5.2z"/>
  <circle transform="rotate(-45 229.3 417)" class="st5" cx="229.3" cy="417" r="13.3"/>
  <path class="st2" d="M235.8 417a6.5 6.5 0 11-13 0 6.5 6.5 0 0113 0z"/>
  <path class="st4" d="M180 465.6a5.2 5.2 0 01-5.2-5.3v-70a5.2 5.2 0 1110.5 0v70c0 3-2.4 5.3-5.3 5.3z"/>
  <circle transform="rotate(-76.8 180 377)" class="st5" cx="180" cy="377.1" r="13.3"/>
  <path class="st2" d="M186.5 377a6.5 6.5 0 11-12.9 0 6.5 6.5 0 0113 0z"/>
  <path class="st4" d="M359.4 288h-46.7a5.2 5.2 0 110-10.5h46.7a5.2 5.2 0 110 10.5z"/>
  <circle transform="rotate(-45 306.2 282.8)" class="st5" cx="306.2" cy="282.8" r="13.3"/>
  <path class="st2" d="M312.7 282.8a6.5 6.5 0 11-13 0 6.5 6.5 0 0113 0z"/>
  <path class="st4" d="M279.7 399.7a5.2 5.2 0 01-5.2-5.3v-16.6c0-8.4 4.2-16.2 11.2-20.8 66.5-43.5 77.3-94.7 78.8-114.8 2.4-30.5-2.3-58.5-13.9-83.4A136.4 136.4 0 00303 103c-41.5-27.7-94.8-29.8-142.5-5.6a5.3 5.3 0 01-4.8-9.3C207 62 264.1 64.3 309 94.2c22 14.7 39.7 35.6 51.2 60.2a175 175 0 0114.9 88.7c-3.6 45.6-34 90.3-83.5 122.7-4 2.7-6.5 7.1-6.5 12v16.6c0 3-2.4 5.3-5.3 5.3zM279.7 466.8a5.2 5.2 0 01-5.2-5.2v-31.4a5.2 5.2 0 1110.5 0v31.4c0 2.9-2.4 5.2-5.3 5.2zM145.3 466.8a5.2 5.2 0 01-5.2-5.2v-63.3c-15.9.6-33.9-.7-42.3-5-6-3.2-12.8-12.6-13.3-57.8-.2-16.8.6-33.3 1-41.6H60.3a10 10 0 01-7.2-3c-2-2-3-4.6-3-7.3 1.4-99 52.9-155.5 75-175.2a5.2 5.2 0 117 7.8c-21 18.8-70 72.6-71.4 167.2h30.6a5.3 5.3 0 015.2 5.6c0 .2-1.7 23-1.4 46.4.5 44.2 7.4 48.4 7.7 48.5 5.3 2.8 22 5 42.3 3.6a5.2 5.2 0 015.6 5.2v68.9c0 2.9-2.4 5.2-5.3 5.2z"/>
  <circle transform="rotate(-21.8 269.5 204.4)" class="st5" cx="269.5" cy="204.4" r="51.7"/>
  <circle transform="rotate(-80.7 269.5 204.4)" class="st2" cx="269.4" cy="204.4" r="25.9"/>
  <circle transform="rotate(-22.7 255.5 230.3)" class="st2" cx="255.5" cy="230.3" r="11.9"/>
  <g>
    <path class="st4" d="M255.5 247.5a17.2 17.2 0 110-34.3 17.2 17.2 0 010 34.3zm0-23.8a6.7 6.7 0 00-4.7 11.3 6.7 6.7 0 009.4-9.4c-1.3-1.3-3-2-4.7-2z"/>
  </g>
  <g>
    <path class="st5" d="M18.2 285.6a13.7 13.7 0 110-27.3 13.7 13.7 0 010 27.3zm0-16.8a3.2 3.2 0 100 6.3 3.2 3.2 0 000-6.3zM395.4 431.8a13.7 13.7 0 110-27.3 13.7 13.7 0 010 27.3zm0-16.8a3.2 3.2 0 100 6.3 3.2 3.2 0 000-6.3zM338.7 89.7c-1.4 0-2.7-.6-3.7-1.6L323 76.2c-2-2-2-5.3 0-7.4L335 57a5.2 5.2 0 017.4 0l11.9 12a5.2 5.2 0 010 7.3l-11.9 11.9c-1 1-2.4 1.6-3.7 1.6zm-4.4-17.2l4.4 4.5 4.4-4.5-4.4-4.4-4.4 4.4zM26.6 351.7c-1.4 0-2.7-.5-3.7-1.5l-11.8-11.9a5.2 5.2 0 010-7.4L22.9 319c2-2 5.4-2 7.5 0L42.2 331a5.2 5.2 0 010 7.4l-11.9 11.9c-1 1-2.3 1.5-3.7 1.5zm-4.4-17l4.5 4.4 4.4-4.5-4.4-4.4-4.5 4.4zM336 410.4c-1.3 0-2.7-.5-3.7-1.5L320.4 397a5.2 5.2 0 010-7.4l11.9-11.9c2-2 5.4-2 7.4 0l11.9 11.9a5.3 5.3 0 010 7.4L339.7 409c-1 1-2.3 1.5-3.7 1.5zm-4.4-17l4.4 4.4 4.5-4.5-4.5-4.4-4.4 4.4z"/>
  </g>
</svg>