<svg xmlns="http://www.w3.org/2000/svg" overflow="visible" viewBox="0 0 472.6 540.6">
  <style>
    .st1{opacity:.1;fill:#0791c8;enable-background:new}.st2{fill:#fff}.st3{fill:#0791c8}.st4{fill:#17181b}
  </style>
  <path d="M418.3 181.5c-8.8-8.8-19-15.8-30.3-20.9a131.4 131.4 0 01-65.9-67.1A156.4 156.4 0 1051 246.4a135 135 0 0118 118C51.1 421.1 57.3 475 91 508.6c59 59 180.2 33.6 270.6-56.8 90.3-90.3 115.8-211.4 56.7-270.4z" fill="#f2f2f2"/>
  <path class="st1" d="M467.4 343.5v-30.4c0-2.9-2.4-5.2-5.3-5.2H441a76 76 0 00-7.3-17.7l14.9-15c2-2 2-5.3 0-7.4L427 246.3c-2-2-5.4-2-7.5 0l-14.9 15a77.1 77.1 0 00-17.7-7.4v-21.1c0-3-2.3-5.3-5.3-5.3h-30.3c-3 0-5.3 2.4-5.3 5.3v21a76 76 0 00-17.7 7.4l-15-14.9c-2-2-5.3-2-7.4 0l-21.5 21.5c-2 2-2 5.4 0 7.5l15 14.9a77.3 77.3 0 00-7.4 17.7H271c-3 0-5.3 2.3-5.3 5.2v30.4c0 3 2.4 5.3 5.3 5.3h21a76 76 0 007.4 17.7l-14.9 15c-2 2-2 5.3 0 7.4l21.5 21.5c2 2 5.4 2 7.5 0l14.8-15a77.3 77.3 0 0017.8 7.4v21c0 3 2.3 5.3 5.2 5.3h30.4c3 0 5.3-2.3 5.3-5.2v-21.1a76 76 0 0017.7-7.3l15 14.9c2 2 5.3 2 7.4 0l21.4-21.5c2.1-2 2.1-5.4 0-7.5l-14.9-14.9a77.3 77.3 0 007.4-17.7h21c3 0 5.4-2.4 5.4-5.3zM366.5 368a39.6 39.6 0 110-79.2 39.6 39.6 0 010 79.2zM275.2 455v-21c0-3-2.4-5.3-5.3-5.3h-15.1a59.3 59.3 0 00-5.7-13.7l10.7-10.7c2-2 2-5.4 0-7.5l-15-14.9c-2-2-5.3-2-7.4 0l-10.7 10.7a59.5 59.5 0 00-13.7-5.7v-15.1c0-3-2.4-5.3-5.3-5.3h-21c-3 0-5.4 2.4-5.4 5.3v15.1a59.7 59.7 0 00-13.7 5.7L157 381.9c-2-2-5.4-2-7.4 0l-15 15c-2 2-2 5.3 0 7.4l10.7 10.7a59.5 59.5 0 00-5.7 13.7h-15c-3 0-5.4 2.4-5.4 5.3V455c0 3 2.4 5.3 5.3 5.3h15.1c1.4 4.8 3.3 9.4 5.7 13.7l-10.7 10.7c-2 2-2 5.4 0 7.4l15 15c2 2 5.4 2 7.4 0l10.7-10.7c4.3 2.4 8.9 4.3 13.7 5.7v15c0 3 2.4 5.4 5.3 5.4h21.1c3 0 5.3-2.4 5.3-5.3v-15.1c4.8-1.4 9.4-3.3 13.7-5.7l10.7 10.7c2 2 5.4 2 7.5 0l14.9-15c2-2 2-5.4 0-7.4L249.1 474c2.5-4.3 4.4-8.9 5.7-13.7h15.1c3 0 5.3-2.4 5.3-5.3zm-78 21.1a31.6 31.6 0 110-63.2 31.6 31.6 0 010 63.2zM274.9 232v-44.3c0-2.9-2.4-5.2-5.3-5.2h-30c-2.3-8.4-5.6-16.3-9.8-23.7l21.2-21.2c2-2 2-5.4 0-7.5L219.8 99c-2.1-2-5.4-2-7.5 0l-21.2 21.2c-7.4-4.2-15.3-7.5-23.7-9.8v-30c0-2.9-2.3-5.3-5.2-5.3H118c-3 0-5.3 2.4-5.3 5.3v30c-8.4 2.3-16.3 5.6-23.7 9.8L67.8 98.9c-2-2-5.4-2-7.4 0L29 130.1c-2 2-2 5.4 0 7.5l21.2 21.2c-4.2 7.3-7.5 15.3-9.8 23.6h-30c-2.9 0-5.2 2.4-5.2 5.3V232c0 3 2.3 5.3 5.3 5.3h30c2.2 8.4 5.5 16.3 9.7 23.7L29.2 282c-2.1 2.1-2.1 5.4 0 7.5l31.2 31.2c2 2 5.4 2 7.5 0L89 299.6c7.4 4.2 15.4 7.5 23.7 9.8v30c0 2.8 2.4 5.2 5.3 5.2h44.2c2.9 0 5.2-2.4 5.2-5.3v-30c8.4-2.2 16.4-5.5 23.7-9.7l21.2 21.1c2 2 5.4 2 7.5 0l31.2-31.2c2-2 2-5.4 0-7.4l-21.2-21.2c4.2-7.4 7.5-15.3 9.8-23.7h30c2.9 0 5.3-2.4 5.3-5.3zM140 269.5a59.7 59.7 0 110-119.5 59.7 59.7 0 010 119.5z"/>
  <path class="st2" d="M467.4 315v-30.4c0-2.9-2.4-5.3-5.3-5.3H441a76 76 0 00-7.3-17.7l14.9-14.9c2-2 2-5.4 0-7.4L427 217.8c-2-2-5.4-2-7.5 0l-14.9 14.9a77.1 77.1 0 00-17.7-7.3v-21.1c0-3-2.3-5.3-5.3-5.3h-30.3c-3 0-5.3 2.4-5.3 5.3v21a76 76 0 00-17.7 7.4l-15-14.9c-2-2-5.3-2-7.4 0l-21.5 21.5c-2 2-2 5.4 0 7.4l15 15a77.3 77.3 0 00-7.4 17.7H271c-3 0-5.3 2.3-5.3 5.2V315c0 3 2.4 5.3 5.3 5.3h21a76 76 0 007.4 17.7l-14.9 14.9c-2 2-2 5.4 0 7.5l21.5 21.4c2 2.1 5.4 2.1 7.5 0l14.8-14.9a77.3 77.3 0 0017.8 7.4v21c0 3 2.3 5.3 5.2 5.3h30.4c3 0 5.3-2.3 5.3-5.2v-21.1a76 76 0 0017.7-7.4l15 15c2 2 5.3 2 7.4 0l21.4-21.5c2.1-2 2.1-5.4 0-7.5L433.6 338a77.3 77.3 0 007.4-17.7h21c3 0 5.4-2.4 5.4-5.3zm-100.9 24.4a39.6 39.6 0 110-79.2 39.6 39.6 0 010 79.2z"/>
  <path class="st3" d="M381.7 406h-30.4c-5.8 0-10.5-4.8-10.5-10.6v-17.2c-4-1.3-7.8-2.9-11.5-4.7l-12.1 12a10.5 10.5 0 01-15 0l-21.4-21.4a10.5 10.5 0 010-15l12-12a82 82 0 01-4.7-11.5H271c-5.8 0-10.6-4.8-10.6-10.6v-30.4c0-5.8 4.8-10.5 10.6-10.5h17.1c1.3-4 3-7.8 4.8-11.5l-12.1-12.1a10.6 10.6 0 010-15l21.5-21.4a10.6 10.6 0 0114.9 0l12.1 12c3.7-1.8 7.6-3.4 11.5-4.7v-17.1c0-5.8 4.7-10.6 10.6-10.6h30.3c5.9 0 10.6 4.8 10.6 10.6v17.1c4 1.3 7.8 2.9 11.5 4.8l12.1-12.1a10.6 10.6 0 0115 0l21.4 21.4a10.6 10.6 0 010 15l-12.1 12a82 82 0 014.8 11.6H462c5.8 0 10.6 4.7 10.6 10.5V315c0 5.8-4.8 10.6-10.6 10.6H445c-1.3 4-3 7.7-4.8 11.5l12.1 12a10.5 10.5 0 010 15l-21.5 21.5a10.5 10.5 0 01-14.9 0l-12.1-12.1a82 82 0 01-11.5 4.7v17.2c0 5.8-4.8 10.5-10.6 10.5zm-53.3-44.3c.9 0 1.8.2 2.6.7 5.2 3 10.7 5.2 16.5 6.8 2.3.6 3.9 2.7 3.9 5v21.1h30.3v-21c0-2.4 1.6-4.5 4-5.1a71.1 71.1 0 0016.4-6.8c2-1.2 4.7-.9 6.4.8l14.9 15 21.4-21.6-14.9-14.9a5.3 5.3 0 01-.8-6.3c3-5.2 5.3-10.8 6.8-16.5a5.3 5.3 0 015.1-3.9h21v-30.4h-21a5.3 5.3 0 01-5-3.9 71.4 71.4 0 00-7-16.5c-1.1-2-.7-4.6 1-6.3l14.8-15-21.4-21.4-15 14.9a5.3 5.3 0 01-6.3.8c-5.2-3-10.8-5.2-16.5-6.8a5.3 5.3 0 01-3.9-5v-21.1h-30.4v21c0 2.4-1.5 4.5-3.8 5.1a71.1 71.1 0 00-16.5 6.8c-2.1 1.2-4.7.9-6.4-.8l-14.9-14.9-21.5 21.5 15 14.9c1.6 1.7 2 4.3.8 6.3-3 5.2-5.3 10.8-6.8 16.5a5.3 5.3 0 01-5.1 4H271V315h21c2.4 0 4.5 1.6 5.2 3.9a71.1 71.1 0 006.8 16.5c1.2 2 .8 4.6-.9 6.3l-14.9 15 21.5 21.4 15-14.9c1-1 2.3-1.5 3.7-1.5zm38.1-17a45 45 0 1142.9-31.6 5.3 5.3 0 01-10-3 34.3 34.3 0 10-21.8 22.2 5.3 5.3 0 113.4 10 44.7 44.7 0 01-14.5 2.4z"/>
  <path class="st2" d="M275.2 426.6v-21.1c0-3-2.4-5.3-5.3-5.3h-15.1a59.3 59.3 0 00-5.7-13.7l10.7-10.7c2-2 2-5.4 0-7.5l-15-15c-2-2-5.3-2-7.4 0l-10.7 10.8a59.5 59.5 0 00-13.7-5.7v-15.1c0-3-2.4-5.3-5.3-5.3h-21c-3 0-5.4 2.4-5.4 5.3v15a59.3 59.3 0 00-13.7 5.8L157 353.4c-2-2-5.4-2-7.4 0l-15 15c-2 2-2 5.3 0 7.4l10.7 10.7a59.5 59.5 0 00-5.7 13.7h-15c-3 0-5.4 2.3-5.4 5.3v21c0 3 2.4 5.4 5.3 5.4h15.1c1.4 4.8 3.3 9.4 5.7 13.7l-10.7 10.7c-2 2-2 5.4 0 7.4l15 15c2 2 5.4 2 7.4 0l10.7-10.7c4.3 2.4 8.9 4.3 13.7 5.6v15.2c0 2.9 2.4 5.2 5.3 5.2h21.1c3 0 5.3-2.3 5.3-5.2v-15.2c4.8-1.3 9.4-3.2 13.7-5.6l10.7 10.6c2 2.1 5.4 2.1 7.5 0l14.9-14.9c2-2 2-5.4 0-7.4l-10.7-10.7c2.5-4.3 4.4-8.9 5.7-13.7h15.1c3 0 5.3-2.4 5.3-5.3zm-78 21a31.6 31.6 0 110-63.2 31.6 31.6 0 010 63.2z"/>
  <path class="st3" d="M207.7 499.3h-21c-6 0-10.7-4.7-10.7-10.5v-11.3c-2.5-.8-5-1.8-7.4-3l-8 7.9a10.6 10.6 0 01-14.9 0l-14.9-15a10.6 10.6 0 010-14.9l8-7.9c-1.2-2.4-2.3-5-3.2-7.5h-11.2c-5.8 0-10.5-4.7-10.5-10.5v-21.1c0-5.8 4.7-10.6 10.5-10.6h11.2l3.1-7.4-7.9-8a10.6 10.6 0 010-14.9l15-15a10.6 10.6 0 0114.9 0l7.9 8c2.4-1.2 5-2.2 7.5-3v-11.3c0-5.8 4.7-10.6 10.5-10.6h21.1c5.9 0 10.6 4.8 10.6 10.6v11.2c2.5.9 5 2 7.4 3.1l8-8a10.6 10.6 0 0114.9 0l15 15a10.6 10.6 0 010 15l-8 7.9c1.2 2.4 2.2 4.9 3 7.4H270c5.8 0 10.6 4.8 10.6 10.6v21c0 6-4.8 10.7-10.6 10.7h-11.2c-.9 2.5-2 5-3.1 7.4l8 8a10.6 10.6 0 010 14.9l-15 14.9a10.6 10.6 0 01-15 0l-7.9-8c-2.4 1.2-4.9 2.3-7.4 3.2v11.2c0 5.8-4.8 10.5-10.6 10.5zm-40-36.6c.8 0 1.7.2 2.5.7 4 2.2 8.2 4 12.5 5.2 2.3.6 4 2.7 4 5v15.1h21v-15c0-2.4 1.6-4.5 4-5.2a54 54 0 0012.4-5.1c2-1.2 4.7-.8 6.4.8l10.7 10.7 14.9-15-10.7-10.6a5.3 5.3 0 01-.9-6.4c2.3-3.9 4-8 5.2-12.4a5.3 5.3 0 015.1-4H270v-21h-15.1a5.3 5.3 0 01-5-4 54 54 0 00-5.3-12.4c-1.1-2.1-.8-4.7.9-6.4L256 372l-15-15-10.7 10.8a5.3 5.3 0 01-6.3.8c-4-2.2-8.1-4-12.5-5.2a5.3 5.3 0 01-3.9-5v-15.1h-21v15c0 2.4-1.7 4.5-4 5.2-4.3 1.1-8.5 2.9-12.5 5.1-2 1.2-4.6.8-6.3-.8L153.2 357l-15 15 10.7 10.6c1.7 1.7 2 4.3.9 6.4a54 54 0 00-5.2 12.4 5.3 5.3 0 01-5 4h-15.2v21h15.1c2.4 0 4.5 1.7 5.1 4a54 54 0 005.2 12.4c1.2 2.1.8 4.7-.9 6.4L138.3 460l14.9 15 10.7-10.8c1-1 2.4-1.5 3.7-1.5zm29.5-9.8a36.9 36.9 0 110-73.8 36.9 36.9 0 010 73.8zm0-63.2a26.3 26.3 0 100 52.7 26.3 26.3 0 000-52.7z"/>
  <g>
    <path class="st2" d="M274.9 203.4v-44.2c0-2.9-2.4-5.2-5.3-5.2h-30c-2.3-8.4-5.6-16.4-9.8-23.7L251 109c2-2 2-5.4 0-7.5l-31.2-31.2c-2-2-5.4-2-7.5 0l-21.2 21.2c-7.3-4.2-15.3-7.5-23.6-9.8v-30c0-3-2.4-5.3-5.3-5.3H118c-3 0-5.3 2.4-5.3 5.3v30c-8.4 2.3-16.3 5.6-23.7 9.8L67.8 70.4c-2-2-5.4-2-7.4 0L29 101.6c-2 2-2 5.4 0 7.5l21.2 21.2c-4.2 7.3-7.5 15.3-9.8 23.6h-30c-2.9 0-5.2 2.4-5.2 5.3v44.2c0 3 2.3 5.3 5.3 5.3h30c2.2 8.4 5.5 16.3 9.7 23.7l-21.1 21.1c-2.1 2.1-2.1 5.4 0 7.5l31.2 31.2c2 2.1 5.4 2.1 7.5 0L89 271.1c7.4 4.2 15.4 7.5 23.7 9.8v30c0 2.9 2.4 5.2 5.3 5.2h44.2c2.9 0 5.2-2.4 5.2-5.3v-30c8.4-2.2 16.4-5.5 23.7-9.7l21.2 21.1c2 2.1 5.4 2.1 7.5 0L251 261c2-2 2-5.4 0-7.5l-21.2-21.1c4.2-7.4 7.5-15.4 9.8-23.7h30c2.9 0 5.3-2.4 5.3-5.3zM140 241a59.7 59.7 0 110-119.4 59.7 59.7 0 010 119.4z"/>
    <path class="st3" d="M162.2 321.4H118c-5.8 0-10.6-4.8-10.6-10.6v-26c-6-1.9-11.8-4.3-17.4-7.2L71.6 296a10.6 10.6 0 01-15 0l-31.2-31.3a10.6 10.6 0 010-14.9l18.4-18.4c-3-5.6-5.3-11.4-7.2-17.5h-26C4.7 214 0 209.2 0 203.4v-44.2c0-5.8 4.7-10.5 10.6-10.5h26a108 108 0 017.2-17.5l-18.4-18.4a10.6 10.6 0 010-15l31.2-31.1a10.6 10.6 0 0115 0L90 85c5.6-2.9 11.4-5.3 17.4-7.2v-26c0-5.8 4.8-10.6 10.6-10.6h44.2c5.8 0 10.5 4.8 10.5 10.6v26c6 1.9 11.9 4.3 17.5 7.2l18.4-18.3a10.6 10.6 0 0114.9 0l31.2 31.2a10.6 10.6 0 010 15l-18.4 18.3c3 5.6 5.4 11.5 7.3 17.5h26c5.8 0 10.5 4.7 10.5 10.5v44.2c0 5.8-4.7 10.6-10.5 10.6h-26a109 109 0 01-7.3 17.4l18.4 18.4a10.6 10.6 0 010 15L223.5 296a10.5 10.5 0 01-15 0l-18.3-18.4c-5.6 3-11.5 5.3-17.5 7.2v26c0 5.8-4.7 10.6-10.5 10.6zM89 265.8c1 0 1.8.2 2.6.7 7.1 4 14.7 7.1 22.5 9.3 2.3.6 3.9 2.7 3.9 5v30h44.2v-30c0-2.3 1.5-4.4 3.8-5a97 97 0 0022.5-9.3c2-1.2 4.7-.8 6.3.8l21.2 21.2 31.3-31.2L226 236a5.3 5.3 0 01-.9-6.4c4-7 7.2-14.6 9.3-22.4a5.3 5.3 0 015.1-4h30v-44h-30a5.3 5.3 0 01-5-4 97 97 0 00-9.4-22.4c-1.1-2.1-.8-4.7.9-6.4l21.2-21.2L216 74.1l-21.2 21.2a5.3 5.3 0 01-6.3.8c-7-4-14.6-7.1-22.5-9.3a5.3 5.3 0 01-3.9-5v-30H118v30c0 2.3-1.6 4.4-4 5a97 97 0 00-22.4 9.4c-2 1.1-4.6.8-6.3-.9L64 74.1 33 105.4 54 126.5c1.7 1.7 2 4.3.9 6.4-4 7-7.2 14.6-9.3 22.4a5.3 5.3 0 01-5 4h-30v44.1h30c2.3 0 4.4 1.6 5 3.9a97.3 97.3 0 009.3 22.5c1.2 2 .8 4.6-.8 6.3l-21.2 21.2L64 288.5l21.2-21.2c1-1 2.4-1.5 3.7-1.5zm51-19.5a65 65 0 01-31.1-8 5.3 5.3 0 115-9.2 54.5 54.5 0 10-22.6-23.7 5.3 5.3 0 11-9.5 4.7 65 65 0 1158.3 36.2z"/>
  </g>
  <g>
    <path class="st4" d="M366.5 111.2a14 14 0 110-28 14 14 0 010 28zm0-17.4a3.4 3.4 0 100 6.8 3.4 3.4 0 000-6.8z"/>
  </g>
  <g>
    <path class="st4" d="M366.5 504a14 14 0 110-28 14 14 0 010 28zm0-17.4a3.4 3.4 0 100 6.8 3.4 3.4 0 000-6.8z"/>
  </g>
  <g>
    <path class="st4" d="M197.2 51.8a14 14 0 110-28 14 14 0 010 28zm0-17.4a3.4 3.4 0 100 6.9 3.4 3.4 0 000-6.9z"/>
  </g>
  <g>
    <path class="st4" d="M313.5 151c-1.4 0-2.7-.6-3.7-1.6l-12-11.9c-2-2-2-5.4 0-7.5l12-11.9c2-2 5.3-2 7.4 0l12 12a5.3 5.3 0 010 7.4l-12 12c-1 1-2.4 1.5-3.7 1.5zm-4.5-17.2l4.5 4.4 4.4-4.4-4.4-4.5-4.5 4.5z"/>
  </g>
  <g>
    <path class="st4" d="M28 369.8c-1.4 0-2.7-.6-3.7-1.6l-12-11.9c-2-2-2-5.4 0-7.5l12-11.9c2-2 5.4-2 7.5 0l11.9 12a5.3 5.3 0 010 7.4l-12 12c-1 1-2.3 1.5-3.7 1.5zm-4.4-17.2L28 357l4.5-4.4L28 348l-4.4 4.5z"/>
  </g>
</svg>