<svg xmlns="http://www.w3.org/2000/svg" overflow="visible" viewBox="0 0 407.9 57.6">
  <style>
    .st1{fill:#192e42}
  </style>
  <linearGradient id="SVGID_1_" gradientUnits="userSpaceOnUse" x1="18.4" y1="44" x2="80.9" y2="-18.4">
    <stop offset="0" stop-color="#0493ca"/>
    <stop offset="1" stop-color="#52b2db"/>
  </linearGradient>
  <path d="M0 0l26.8 51.6a11 11 0 0019.5 0l.8-1.5 2.6-5L55 34.8l13-25h15.3L63.9 47.2c-.4.8-1.8.8-2.3 0L58 39.9l-5.5 10.5.6 1.2a11 11 0 0019.5 0L99.3 0H62.2l-8 15.4-4.5 8.7-5.5 10.5-6.5 12.6c-.5.8-1.9.8-2.3 0L15.9 9.7h15.3l10.3 19.7 5.4-10.5L37.1 0H0z" fill="url(#SVGID_1_)"/>
  <g>
    <path class="st1" d="M188.5 6.4l-14.8 45.9c-.3 1-1 1.6-2.2 1.6h-8.7c-1.1 0-1.8-.5-2.2-1.6L151 22.6l-9.5 29.7c-.4 1-1 1.6-2.1 1.6h-8.8c-1 0-1.8-.5-2.1-1.6l-14.9-46c-.4-1 .1-1.6 1.2-1.6h8.5c1 0 1.8.6 2.1 1.7l10.2 31.4 10-31.4c.4-1.1 1.2-1.7 2.3-1.7h6.4c1.1 0 1.9.6 2.2 1.7l10.1 31.4 10.1-31.4c.4-1.1 1.1-1.7 2.2-1.7h8.5c1 0 1.4.6 1 1.7zM237 20v12.6c0 1.1-.5 1.6-1.6 1.6h-31.2v3.3c0 5.1 2.6 7.7 7.7 7.7H232c1.1 0 1.7.5 1.7 1.6v5.5c0 1-.6 1.6-1.7 1.6h-23.5c-11 0-16.4-5.4-16.4-16.4V20c0-10.9 5.5-16.4 16.4-16.4h12c11 0 16.4 5.5 16.4 16.4zm-12 0c0-5-2.5-7.6-7.6-7.6h-5.5c-5.1 0-7.7 2.5-7.7 7.6v5.5H225V20zM255.5 6.4v45.9c0 1-.6 1.6-1.7 1.6h-8.7c-1.1 0-1.7-.5-1.7-1.6v-46c0-1 .6-1.6 1.7-1.6h8.7c1.1 0 1.7.6 1.7 1.7zM310 6.4L292 52.3c-.5 1-1.2 1.6-2.3 1.6h-8.7c-1.1 0-1.8-.5-2.3-1.6L261 6.3c-.5-1-.1-1.6 1-1.6h8.7c1 0 1.8.6 2.3 1.7l12.5 32 12.4-32c.5-1.1 1.2-1.7 2.3-1.7h8.8c1 0 1.4.6 1 1.7zM357.8 20v12.6c0 1.1-.6 1.6-1.6 1.6H325v3.3c0 5.1 2.6 7.7 7.7 7.7h20.2c1 0 1.6.5 1.6 1.6v5.5c0 1-.5 1.6-1.6 1.6h-23.5c-11 0-16.4-5.4-16.4-16.4V20c0-10.9 5.5-16.4 16.4-16.4h12c11 0 16.4 5.5 16.4 16.4zm-12 0c0-5-2.6-7.6-7.7-7.6h-5.4c-5.1 0-7.7 2.5-7.7 7.6v5.5h20.8V20zM408 20v32.3c0 1-.6 1.6-1.7 1.6h-8.7c-1.1 0-1.7-.5-1.7-1.6V20c0-5-2.5-7.6-7.6-7.6h-3.8c-4.4 0-6.6 2.2-8.8 6.5v33.4c0 1-.5 1.6-1.6 1.6h-8.8c-1 0-1.6-.5-1.6-1.6v-46c0-1 .5-1.6 1.6-1.6h8.8c1 0 1.6.6 1.6 1.7v3.8c3-4.4 6-6.5 12-6.5h5C402.9 3.7 408 9 408 20z"/>
  </g>
</svg>