<?xml version="1.0" standalone="no"?>
<!DOCTYPE svg PUBLIC "-//W3C//DTD SVG 20010904//EN"
 "http://www.w3.org/TR/2001/REC-SVG-20010904/DTD/svg10.dtd">
<svg version="1.0" xmlns="http://www.w3.org/2000/svg"
 width="1200.000000pt" height="1200.000000pt" viewBox="0 0 1200.000000 1200.000000"
 preserveAspectRatio="xMidYMid meet">
<metadata>
Created by potrace 1.14, written by Peter Selinger 2001-2017
</metadata>
<g transform="translate(0.000000,1200.000000) scale(0.100000,-0.100000)"
fill="#000000" stroke="none">
<path d="M507 9192 c-14 -3 -13 -9 7 -45 13 -23 61 -116 108 -207 47 -91 113
-217 145 -280 93 -178 192 -370 283 -545 45 -88 104 -200 130 -250 26 -49 87
-166 135 -260 48 -93 116 -224 150 -290 152 -293 197 -380 275 -530 46 -88
108 -209 140 -270 31 -60 94 -182 140 -270 45 -88 104 -200 130 -250 26 -49
84 -162 130 -250 45 -88 102 -198 127 -245 24 -47 92 -177 150 -290 58 -113
134 -259 168 -325 34 -66 93 -178 130 -250 37 -71 72 -136 77 -142 6 -7 7 -13
3 -13 -4 0 -3 -6 3 -12 15 -20 48 -82 182 -343 67 -132 133 -258 145 -280 12
-22 66 -125 120 -230 53 -104 122 -228 152 -275 60 -92 208 -247 288 -301 28
-19 53 -37 56 -41 3 -5 53 -32 111 -62 127 -64 256 -106 383 -123 62 -9 273
-9 340 -1 60 7 158 30 165 37 3 4 10 6 15 6 27 1 156 52 228 92 173 95 351
258 437 398 13 22 26 42 29 45 4 3 16 25 29 50 56 108 318 612 403 775 26 50
62 119 80 155 19 36 72 139 120 230 139 267 340 655 499 965 56 110 129 250
160 310 84 160 181 347 280 540 49 94 101 195 118 225 16 30 77 150 137 265
59 116 129 251 155 300 26 50 83 160 128 245 44 85 109 211 145 280 35 69 92
179 127 245 34 66 66 125 71 130 13 13 1689 14 1689 1 0 -4 -33 -72 -74 -150
-40 -77 -108 -208 -151 -291 -43 -82 -103 -199 -135 -260 -73 -141 -190 -365
-272 -525 -94 -181 -254 -490 -313 -602 -68 -132 -134 -260 -245 -473 -99
-192 -187 -362 -280 -540 -32 -60 -95 -182 -140 -270 -45 -88 -110 -212 -142
-275 -33 -63 -69 -133 -80 -155 -11 -22 -24 -47 -29 -55 -8 -15 -40 -77 -192
-370 -44 -85 -88 -169 -99 -187 -21 -35 -85 -71 -120 -68 -80 8 -110 30 -150
110 -8 17 -46 91 -85 165 -210 405 -279 538 -293 567 -18 39 -22 40 -35 10 -6
-12 -51 -98 -99 -192 -100 -192 -171 -328 -273 -525 -39 -74 -104 -200 -146
-280 l-76 -146 51 -94 c92 -173 171 -278 295 -391 90 -83 250 -179 378 -229
71 -28 105 -39 105 -35 0 2 11 0 25 -5 80 -31 337 -46 465 -28 216 30 425 121
597 258 133 106 246 247 334 417 154 295 283 544 400 771 41 78 94 182 119
230 93 178 235 451 308 592 41 80 96 186 122 235 26 50 96 185 156 300 60 116
129 249 154 297 25 48 85 165 134 260 49 95 101 196 116 223 44 81 100 194 99
201 0 4 3 10 8 13 5 3 33 53 62 111 30 58 77 150 106 205 111 212 186 357 275
530 99 193 201 389 285 550 29 55 92 177 140 270 48 94 114 220 145 280 32 61
92 178 135 260 43 83 104 201 137 263 33 61 58 112 56 113 -4 0 -4010 0 -4074
0 -50 -1 -52 -2 -68 -38 -8 -21 -42 -87 -74 -148 -32 -60 -107 -204 -166 -320
-60 -115 -130 -250 -156 -300 -26 -49 -89 -171 -141 -270 -51 -99 -121 -234
-155 -300 -35 -66 -81 -156 -103 -200 -23 -44 -73 -141 -112 -215 -69 -131
-155 -299 -314 -605 -43 -82 -103 -199 -135 -260 -32 -60 -88 -168 -125 -240
-37 -71 -91 -175 -120 -230 -29 -55 -90 -172 -135 -260 -45 -88 -102 -196
-125 -240 -23 -44 -100 -192 -170 -330 -70 -137 -140 -272 -155 -300 -15 -27
-65 -124 -112 -215 -47 -91 -115 -221 -150 -290 -36 -69 -100 -192 -143 -275
-42 -82 -81 -154 -86 -159 -5 -6 -9 -16 -9 -23 0 -42 -93 -95 -151 -87 -62 10
-90 35 -134 119 -23 44 -79 152 -124 240 -46 88 -112 214 -146 280 -34 66
-100 192 -145 280 -46 88 -110 212 -142 275 -167 320 -216 415 -276 530 -36
69 -100 193 -142 275 -42 83 -97 188 -122 235 -25 47 -87 166 -138 265 -51 99
-114 221 -140 270 -26 50 -87 167 -135 260 -151 293 -226 437 -280 540 -29 55
-90 172 -135 260 -46 88 -109 211 -141 272 -33 62 -59 116 -59 120 0 10 1671
10 1686 1 6 -4 30 -45 54 -90 106 -206 218 -423 275 -533 34 -66 97 -187 140
-270 43 -82 101 -195 130 -250 29 -55 94 -181 145 -280 51 -99 116 -225 145
-280 169 -322 201 -384 219 -423 11 -23 24 -41 29 -39 8 2 73 125 251 473 20
39 74 142 120 230 45 87 117 225 159 305 l76 147 -35 68 c-20 38 -74 143 -121
234 -47 91 -117 226 -156 300 -38 74 -95 185 -127 245 -32 61 -87 166 -122
235 -36 69 -107 206 -159 305 -51 99 -126 243 -166 320 -40 77 -101 195 -135
263 l-63 122 -40 1 c-176 2 -4055 3 -4068 1z"/>
</g>
</svg>
